HIERARCHY
ROOT Hips
{
	OFFSET -0.001795 -0.223333 0.028219
	CHANNELS 6 Xposition Yposition Zposition Zrotation Yrotation Xrotation 
	JOINT LeftUpLeg
	{
		OFFSET 0.069520 -0.091406 -0.006815
		CHANNELS 3 Zrotation Yrotation Xrotation
		JOINT LeftLeg
		{
			OFFSET 0.034277 -0.375199 -0.004496
			CHANNELS 3 Zrotation Yrotation Xrotation
			JOINT LeftFoot
			{
				OFFSET -0.013596 -0.397961 -0.043693
				CHANNELS 3 Zrotation Yrotation Xrotation
				JOINT LeftToe
				{
					OFFSET 0.026358 -0.055791 0.119288
					CHANNELS 3 Zrotation Yrotation Xrotation
					End Site
					{
						OFFSET 0.000000 0.000000 0.000000
					}
				}
			}
		}
	}
	JOINT RightUpLeg
	{
		OFFSET -0.067670 -0.090522 -0.004320
		CHANNELS 3 Zrotation Yrotation Xrotation
		JOINT RightLeg
		{
			OFFSET -0.038290 -0.382569 -0.008850
			CHANNELS 3 Zrotation Yrotation Xrotation
			JOINT RightFoot
			{
				OFFSET 0.015774 -0.398415 -0.042312
				CHANNELS 3 Zrotation Yrotation Xrotation
				JOINT RightToe
				{
					OFFSET -0.025372 -0.048144 0.123348
					CHANNELS 3 Zrotation Yrotation Xrotation
					End Site
					{
						OFFSET 0.000000 0.000000 0.000000
					}
				}
			}
		}
	}
	JOINT Spine
	{
		OFFSET -0.002533 0.108963 -0.026696
		CHANNELS 3 Zrotation Yrotation Xrotation
		JOINT Spine1
		{
			OFFSET 0.005487 0.135180 0.001092
			CHANNELS 3 Zrotation Yrotation Xrotation
			JOINT Spine2
			{
				OFFSET 0.001457 0.052922 0.025425
				CHANNELS 3 Zrotation Yrotation Xrotation
				JOINT Neck
				{
					OFFSET -0.002778 0.213870 -0.042857
					CHANNELS 3 Zrotation Yrotation Xrotation
					JOINT Head
					{
						OFFSET 0.005152 0.064970 0.051349
						CHANNELS 3 Zrotation Yrotation Xrotation
						End Site
						{
							OFFSET 0.000000 0.000000 0.000000
						}
					}
				}
				JOINT LeftShoulder
				{
					OFFSET 0.078845 0.121749 -0.034090
					CHANNELS 3 Zrotation Yrotation Xrotation
					JOINT LeftArm
					{
						OFFSET 0.090977 0.030469 -0.008868
						CHANNELS 3 Zrotation Yrotation Xrotation
						JOINT LeftForeArm
						{
							OFFSET 0.259612 -0.012772 -0.027456
							CHANNELS 3 Zrotation Yrotation Xrotation
							JOINT LeftHand
							{
								OFFSET 0.249234 0.008986 -0.001171
								CHANNELS 3 Zrotation Yrotation Xrotation
								End Site
								{
									OFFSET 0.000000 0.000000 0.000000
								}
							}
						}
					}
				}
				JOINT RightShoulder
				{
					OFFSET -0.081759 0.118833 -0.038615
					CHANNELS 3 Zrotation Yrotation Xrotation
					JOINT RightArm
					{
						OFFSET -0.096012 0.032551 -0.009143
						CHANNELS 3 Zrotation Yrotation Xrotation
						JOINT RightForeArm
						{
							OFFSET -0.253742 -0.013329 -0.021401
							CHANNELS 3 Zrotation Yrotation Xrotation
							JOINT RightHand
							{
								OFFSET -0.255298 0.007772 -0.005559
								CHANNELS 3 Zrotation Yrotation Xrotation
								End Site
								{
									OFFSET 0.000000 0.000000 0.000000
								}
							}
						}
					}
				}
			}
		}
	}
}
MOTION
Frames: 12
Frame Time: 0.050000
0.000000 0.937357 0.000000 6.271245 10.885769 13.577765 2.657731 -2.100366 -22.360993 -0.074831 -0.909771 16.301772 -1.915913 3.994107 14.590541 0.000000 0.000000 0.000000 -2.893687 1.340575 -26.691290 0.885133 -0.092373 21.835409 1.970962 4.076359 2.245676 0.000000 0.000000 0.000000 10.138428 -5.225292 27.981927 1.981200 -1.094788 1.597272 -0.598395 7.925950 4.961513 9.766110 -4.534907 -11.510481 0.000000 0.000000 0.000000 -10.922940 -21.719926 6.652520 -16.523232 -6.343433 -0.733734 31.800631 -38.781298 -11.364391 0.000000 0.000000 0.000000 21.717590 20.874707 15.157986 32.722676 30.839144 3.174967 -21.873087 25.898716 -3.018393 0.000000 0.000000 0.000000 
0.010703 0.936540 -0.000835 6.624823 11.577590 13.860243 3.123282 -2.352449 -24.839953 -1.265793 -0.882591 19.611169 -3.247211 1.663185 14.118461 0.000000 0.000000 0.000000 -3.085069 1.268142 -28.156560 1.033107 -0.263376 24.666028 5.031901 13.439627 -0.740727 0.000000 0.000000 0.000000 10.941729 -5.300920 26.707755 1.803907 -1.175262 3.365670 -0.258398 7.659950 3.007861 8.222885 -4.125521 -8.810202 0.000000 0.000000 0.000000 -15.992079 -17.624791 4.456438 -15.331811 -3.334339 -0.868385 22.835555 -33.139519 -6.389639 0.000000 0.000000 0.000000 25.534607 19.004859 14.996161 28.624324 28.773911 1.800844 -17.235064 26.875524 -2.292474 0.000000 0.000000 0.000000 
0.024799 0.931029 0.002133 6.584857 11.128036 12.852045 4.195700 -2.263577 -25.813114 -1.744932 -0.873522 21.701395 -4.826876 -1.756410 12.894260 0.000000 0.000000 0.000000 -3.130689 1.293456 -28.350971 -0.648276 0.301398 28.141097 7.834825 22.339206 -2.492829 0.000000 0.000000 0.000000 11.280991 -5.180526 26.012157 1.036371 -0.854870 4.167288 -0.301900 7.255293 3.133159 6.849141 -3.022241 -9.705660 0.000000 0.000000 0.000000 -16.759907 -12.804769 2.058311 -19.740161 -1.751728 -1.323051 19.547777 -34.739108 -5.701358 0.000000 0.000000 0.000000 25.588876 17.103837 13.434056 29.343091 26.234828 1.383040 -14.528234 29.287401 -1.898757 0.000000 0.000000 0.000000 
0.041811 0.927469 0.008146 6.651013 10.759519 11.328869 4.519977 -2.245030 -26.505451 -1.739738 -1.183858 26.310780 -3.328505 -2.523259 7.039716 0.000000 0.000000 0.000000 -3.162888 1.316452 -28.060159 -1.642648 0.692627 31.202375 7.125220 21.216516 -3.301932 0.000000 0.000000 0.000000 11.025517 -5.063457 26.297706 0.512645 -0.641335 4.973233 1.127415 7.945256 1.555876 5.482344 -1.768564 -11.376670 0.000000 0.000000 0.000000 -19.909104 -10.839013 0.508623 -21.570490 3.977929 -2.118076 15.527004 -35.827847 -4.493459 0.000000 0.000000 0.000000 26.066345 15.719178 12.440355 29.593299 23.464548 0.968467 -12.722234 28.675854 -1.493453 0.000000 0.000000 0.000000 
0.063588 0.920405 0.017195 7.096551 11.464494 9.798265 4.487515 -2.354316 -27.170304 -1.416665 -1.630310 29.548676 -1.201274 -0.293209 3.663100 0.000000 0.000000 0.000000 -3.844688 1.091739 -27.148076 -3.135943 1.207922 33.978519 6.504119 21.064544 -5.080029 0.000000 0.000000 0.000000 10.951942 -4.913310 25.762999 0.979058 -0.936782 5.402191 0.785290 8.051167 -0.212350 3.754325 -0.930303 -9.761455 0.000000 0.000000 0.000000 -21.972213 -7.450790 -1.875081 -22.543221 8.075595 -2.736866 9.129936 -37.020198 -2.482041 0.000000 0.000000 0.000000 29.910714 12.825642 11.411935 27.327996 20.573616 0.023028 -11.185063 27.560361 -1.130340 0.000000 0.000000 0.000000 
0.090344 0.916369 0.028433 7.009028 11.775857 8.747650 4.907969 -2.187475 -26.258230 -2.307021 -1.457946 30.918457 1.219115 3.728230 1.964779 0.000000 0.000000 0.000000 -4.695795 0.872535 -26.333928 -3.329969 1.239428 36.140071 5.642703 19.006295 -5.582992 0.000000 0.000000 0.000000 11.229856 -4.707185 24.502226 0.725930 -0.956757 7.038291 0.973254 9.375357 -1.570757 3.670179 -0.892990 -9.308446 0.000000 0.000000 0.000000 -23.194327 -6.193147 -3.229953 -24.741923 11.636430 -3.583359 5.624064 -36.382968 -1.344697 0.000000 0.000000 0.000000 29.641343 10.355943 9.958362 27.307461 18.589236 -0.350201 -10.375821 25.879665 -0.868460 0.000000 0.000000 0.000000 
0.122486 0.915060 0.040221 6.988756 11.346022 7.978005 5.390028 -1.958685 -25.089143 -3.012988 -1.181395 31.233262 0.897519 2.333781 0.623970 0.000000 0.000000 0.000000 -5.440880 0.729595 -25.217527 -5.158987 2.133945 36.937068 5.858721 19.067390 -4.943065 0.000000 0.000000 0.000000 11.784791 -4.488182 23.036691 -0.625078 -0.081654 5.130779 2.258168 10.855372 -0.678252 1.595830 0.405617 -8.623569 0.000000 0.000000 0.000000 -24.380180 -3.054480 -5.606596 -24.664861 13.436721 -3.872469 1.075703 -34.880845 0.095878 0.000000 0.000000 0.000000 29.525518 7.184375 8.166583 26.717253 16.174332 -1.011213 -9.000257 24.881509 -0.521277 0.000000 0.000000 0.000000 
0.159017 0.915924 0.052210 7.621901 12.582965 7.007600 6.753047 -1.669251 -23.680228 -3.425498 -1.121931 30.807453 -2.077949 -2.800648 2.542930 0.000000 0.000000 0.000000 -7.404017 0.242611 -22.998158 -5.867516 2.279098 37.417210 5.349515 16.254845 -3.551130 0.000000 0.000000 0.000000 12.062868 -4.227562 21.328619 1.123296 -1.157474 6.579252 0.270270 12.006726 -1.868761 1.482277 0.900335 -10.509408 0.000000 0.000000 0.000000 -23.735227 -1.003115 -7.175564 -26.431389 13.863205 -4.234958 -1.826195 -31.367751 0.764106 0.000000 0.000000 0.000000 26.952246 4.272646 6.423215 27.816426 15.518983 -1.149022 -7.439275 23.407897 -0.105140 0.000000 0.000000 0.000000 
0.200021 0.916067 0.064360 8.314645 12.515179 6.503378 8.250774 -1.419095 -23.378163 -2.808183 -1.269156 30.091883 -1.317087 -0.385316 3.877828 0.000000 0.000000 0.000000 -9.574981 -0.145847 -20.845795 -6.694236 2.667299 37.098940 4.428371 13.064694 -2.673626 0.000000 0.000000 0.000000 11.417586 -3.750118 19.928226 0.781283 -0.971911 6.555514 0.772070 13.699449 -3.442852 0.455492 0.813085 -6.324611 0.000000 0.000000 0.000000 -23.992014 0.137919 -8.302606 -26.357372 14.605870 -4.276259 -3.721999 -26.258731 1.080487 0.000000 0.000000 0.000000 24.705586 4.109280 6.342463 28.004409 12.610181 -1.613799 -7.014840 22.889668 0.004837 0.000000 0.000000 0.000000 
0.245746 0.912164 0.076416 9.182527 12.204397 6.358322 10.111392 -1.097080 -22.646732 -1.946429 -1.218521 26.481226 -1.457253 0.346651 5.621015 0.000000 0.000000 0.000000 -13.245926 -0.768357 -19.313334 -6.688975 2.741488 37.231716 4.360675 12.226340 -1.707392 0.000000 0.000000 0.000000 11.418392 -3.518913 18.887628 0.068772 -0.407467 4.529390 1.254994 15.017900 -1.443383 0.263818 1.062134 -6.385583 0.000000 0.000000 0.000000 -24.068212 0.124655 -8.708386 -28.006439 14.908803 -4.688176 -3.766310 -21.940682 0.889215 0.000000 0.000000 0.000000 24.226494 3.952442 6.624368 26.506478 10.641673 -2.128614 -7.308013 22.467000 -0.053183 0.000000 0.000000 0.000000 
0.295369 0.904721 0.088047 9.656089 12.211937 6.320830 12.646053 -0.760813 -22.222524 -0.925587 -1.137527 21.824579 -2.733969 0.048832 9.359425 0.000000 0.000000 0.000000 -16.355540 -1.302201 -18.305871 -5.833240 2.380642 38.498912 2.323478 6.349552 -0.825437 0.000000 0.000000 0.000000 11.782157 -3.361777 17.678145 0.412541 -0.546631 4.085099 0.552644 15.847775 -1.173586 0.864588 0.474032 -5.275654 0.000000 0.000000 0.000000 -23.134767 1.182361 -9.208724 -30.317470 15.462033 -5.372149 -3.815341 -18.121004 0.711273 0.000000 0.000000 0.000000 22.955202 4.318232 6.952963 25.531873 9.477318 -2.317349 -5.748555 22.069166 0.181381 0.000000 0.000000 0.000000 
0.348306 0.891811 0.099277 9.883070 12.355464 5.755240 14.688808 -0.503781 -22.119759 1.621148 -1.573351 18.939334 -5.314605 -2.543094 12.803229 0.000000 0.000000 0.000000 -20.522493 -1.840454 -15.610561 -4.774924 1.911287 38.654348 1.612866 5.272611 -2.302971 0.000000 0.000000 0.000000 12.091579 -3.226524 16.762710 0.810229 -0.799052 4.632782 0.111361 16.132922 -0.449107 1.401382 0.197085 -5.464513 0.000000 0.000000 0.000000 -24.184631 0.705955 -9.535209 -31.042686 16.956617 -5.831686 -3.157339 -16.543997 0.562286 0.000000 0.000000 0.000000 21.178128 5.959054 7.639221 26.100145 7.790110 -2.488661 -5.985218 22.998690 0.127320 0.000000 0.000000 0.000000 
